HIERARCHY
ROOT pelvis
{
    OFFSET 0.0 93.18448638916016 0.0
    CHANNELS 6 Xposition Yposition Zposition Zrotation Yrotation Xrotation

    JOINT left_hip
    {
        OFFSET -5.738739490509033 -4.757423400878906 -1.8327223062515259
        CHANNELS 3 Zrotation Yrotation Xrotation

        JOINT left_knee
        {
            OFFSET -7.406556606292725 -40.59874725341797 -4.1455464363098145
            CHANNELS 3 Zrotation Yrotation Xrotation

            JOINT left_ankle
            {
                OFFSET 2.6218652725219727 -42.52381896972656 -0.04550790786743164
                CHANNELS 3 Zrotation Yrotation Xrotation

                JOINT left_foot
                {
                    OFFSET -6.444037437438965 -4.767150402069092 11.506129264831543
                    CHANNELS 3 Zrotation Yrotation Xrotation

                    End Site
                    {
                        OFFSET 0 0 0
                    }
                }
            }
        }
    }

    JOINT right_hip
    {
        OFFSET 5.551876068115234 -5.530738830566406 -0.7837769389152527
        CHANNELS 3 Zrotation Yrotation Xrotation

        JOINT right_knee
        {
            OFFSET 7.572011947631836 -40.712528228759766 -4.968527793884277
            CHANNELS 3 Zrotation Yrotation Xrotation

            JOINT right_ankle
            {
                OFFSET -0.8201732635498047 -41.351470947265625 -2.2538132667541504
                CHANNELS 3 Zrotation Yrotation Xrotation

                JOINT right_foot
                {
                    OFFSET 6.972066879272461 -4.905763149261475 12.415164947509766
                    CHANNELS 3 Zrotation Yrotation Xrotation

                    End Site
                    {
                        OFFSET 0 0 0
                    }
                }
            }
        }
    }

    JOINT spine1
    {
        OFFSET 0.4939267039299011 16.814956665039062 -4.262204170227051
        CHANNELS 3 Zrotation Yrotation Xrotation

        JOINT spine2
        {
            OFFSET -1.3763231039047241 12.227798461914062 2.9429211616516113
            CHANNELS 3 Zrotation Yrotation Xrotation

            JOINT spine3
            {
                OFFSET -0.10652047395706177 4.577583312988281 0.46459662914276123
                CHANNELS 3 Zrotation Yrotation Xrotation

                JOINT left_collar
                {
                    OFFSET -7.937784671783447 9.276031494140625 0.6260685920715332
                    CHANNELS 3 Zrotation Yrotation Xrotation

                    JOINT left_shoulder
                    {
                        OFFSET -10.871617317199707 7.8042144775390625 -4.460107803344727
                        CHANNELS 3 Zrotation Yrotation Xrotation

                        JOINT left_elbow
                        {
                            OFFSET -26.03056526184082 5.3875274658203125 -1.240987777709961
                            CHANNELS 3 Zrotation Yrotation Xrotation

                            JOINT left_wrist
                            {
                                OFFSET -23.170886993408203 9.445816040039062 -1.8043999671936035
                                CHANNELS 3 Zrotation Yrotation Xrotation

                                End Site
                                {
                                    OFFSET 0 0 0
                                }
                            }
                        }
                    }
                }

                JOINT right_collar
                {
                    OFFSET 7.739258289337158 10.006011962890625 -0.3688669204711914
                    CHANNELS 3 Zrotation Yrotation Xrotation

                    JOINT right_shoulder
                    {
                        OFFSET 9.479679107666016 8.864593505859375 -3.6980648040771484
                        CHANNELS 3 Zrotation Yrotation Xrotation

                        JOINT right_elbow
                        {
                            OFFSET 25.773839950561523 5.8746490478515625 -2.183407783508301
                            CHANNELS 3 Zrotation Yrotation Xrotation

                            JOINT right_wrist
                            {
                                OFFSET 23.99811553955078 14.528549194335938 0.6262912750244141
                                CHANNELS 3 Zrotation Yrotation Xrotation

                                End Site
                                {
                                    OFFSET 0 0 0
                                }
                            }
                        }
                    }
                }

                JOINT neck
                {
                    OFFSET 0.0064005255699157715 20.98553466796875 0.7822718620300293
                    CHANNELS 3 Zrotation Yrotation Xrotation

                    JOINT head
                    {
                        OFFSET -1.4783365726470947 7.358367919921875 9.648038864135742
                        CHANNELS 3 Zrotation Yrotation Xrotation

                        End Site
                        {
                            OFFSET 0 0 0
                        }
                    }
                }
            }
        }
    }

}

MOTION
Frames: 8
Frame Time: 0.050000
1.459230 92.251534 1.626014 0.000000 0.000000 -0.000000 -1.480855 -1.903131 -1.614923 1.868511 1.241344 5.380962 16.100315 -7.016369 -6.270053 0.000000 0.000000 -0.000000 -0.003697 -0.100553 0.514975 -0.402153 -0.502414 2.595636 7.097751 1.316846 5.090373 0.000000 0.000000 -0.000000 -4.404578 3.766973 -1.428147 0.420136 -0.508661 4.411230 0.000000 0.000000 -0.000000 25.389451 -33.758871 -34.219054 114.570208 34.917565 -79.339179 -5.460122 -16.399146 -27.488499 0.000000 0.000000 -0.000000 -25.135967 25.808380 -40.584585 -99.669400 -39.613156 -74.321555 3.150590 22.585993 -38.282288 0.000000 0.000000 -0.000000 -13.124713 13.061371 -22.732757 0.000000 0.000000 -0.000000
1.481178 92.250603 1.585172 0.000000 0.000000 -0.000000 -1.479550 -1.906092 -1.644484 1.876161 1.242153 5.264212 16.491961 -6.850830 -6.421967 0.000000 0.000000 -0.000000 0.011849 -0.080963 0.506437 -0.445493 -0.549414 2.497043 7.473551 1.250839 5.184050 0.000000 0.000000 -0.000000 -4.405786 3.770713 -1.443442 0.446507 -0.529089 4.431311 0.000000 0.000000 -0.000000 25.347047 -33.649841 -34.154472 114.298120 34.444552 -79.136720 -6.387581 -17.076573 -27.389261 0.000000 0.000000 -0.000000 -25.059330 25.600954 -40.471015 -99.181451 -39.222175 -74.128654 3.812451 23.204866 -37.703413 0.000000 0.000000 -0.000000 -13.015885 12.886987 -22.469997 0.000000 0.000000 -0.000000
1.506777 92.252502 1.522104 0.000000 0.000000 -0.000000 -1.462889 -1.893245 -1.679874 1.859317 1.215601 5.131683 16.845809 -6.660223 -6.562246 0.000000 0.000000 -0.000000 0.035744 -0.047670 0.476233 -0.472057 -0.572835 2.363636 7.952377 1.184404 5.269747 0.000000 0.000000 -0.000000 -4.340984 3.721662 -1.467179 0.512423 -0.577045 4.515529 0.000000 0.000000 -0.000000 25.227282 -33.356078 -33.956577 113.262941 33.556812 -78.466302 -7.990162 -18.343794 -27.036852 0.000000 0.000000 -0.000000 -24.909072 25.276403 -40.156185 -97.731396 -38.438814 -73.337292 4.640628 24.167074 -36.534416 0.000000 0.000000 -0.000000 -12.870636 12.606682 -21.995677 0.000000 0.000000 -0.000000
1.538656 92.256477 1.432616 0.000000 0.000000 -0.000000 -1.447073 -1.884600 -1.737265 1.809510 1.148073 5.037344 17.433148 -6.417386 -6.705035 0.000000 0.000000 -0.000000 0.035576 -0.034718 0.405900 -0.447183 -0.531336 2.248379 8.404556 1.099428 5.342305 0.000000 0.000000 -0.000000 -4.231917 3.629655 -1.454230 0.653850 -0.692004 4.584069 0.000000 0.000000 -0.000000 24.996210 -32.818213 -33.550210 111.190270 32.098824 -77.178195 -10.250235 -20.222886 -26.230057 0.000000 0.000000 -0.000000 -24.642110 24.768430 -39.535892 -94.850675 -37.155143 -71.676900 5.433481 25.388007 -34.674527 0.000000 0.000000 -0.000000 -12.772753 12.244796 -21.233235 0.000000 0.000000 -0.000000
1.574110 92.261887 1.324432 0.000000 0.000000 -0.000000 -1.437026 -1.888743 -1.838542 1.752475 1.060937 5.004865 18.045962 -6.134053 -6.804001 0.000000 0.000000 -0.000000 0.010404 -0.050269 0.333676 -0.359849 -0.421870 2.144242 8.703236 0.963141 5.405816 0.000000 0.000000 -0.000000 -4.090854 3.511953 -1.444360 0.849535 -0.856545 4.565751 0.000000 0.000000 -0.000000 24.642865 -32.053652 -32.888199 107.937659 30.062180 -75.192884 -12.876997 -22.525415 -24.784983 0.000000 0.000000 -0.000000 -24.269561 24.133111 -38.625739 -90.599018 -35.422082 -69.151800 6.243643 26.866538 -32.086868 0.000000 0.000000 -0.000000 -12.783009 11.892433 -20.317447 0.000000 0.000000 -0.000000
1.607686 92.270096 1.207047 0.000000 0.000000 -0.000000 -1.435383 -1.899554 -1.923451 1.725372 1.010411 4.923460 18.256220 -5.830287 -6.817510 0.000000 0.000000 -0.000000 -0.013386 -0.067018 0.276642 -0.247325 -0.288888 2.020048 8.985031 0.797847 5.485073 0.000000 0.000000 -0.000000 -3.922454 3.378978 -1.475686 1.065999 -1.037769 4.492412 0.000000 0.000000 -0.000000 24.116928 -30.999747 -31.868970 103.060659 27.335656 -72.282401 -15.589978 -25.090372 -22.420033 0.000000 0.000000 -0.000000 -23.776050 23.343915 -37.428116 -84.934516 -33.204813 -65.749663 7.182853 28.648068 -28.467391 0.000000 0.000000 -0.000000 -12.810660 11.524199 -19.326774 0.000000 0.000000 -0.000000
1.631181 92.293236 1.090605 0.000000 0.000000 -0.000000 -1.427175 -1.900990 -1.993011 1.739731 1.008292 4.810059 18.292502 -5.522788 -6.822432 0.000000 0.000000 -0.000000 -0.059039 -0.103311 0.189904 -0.155487 -0.173951 1.922848 9.369654 0.660440 5.576041 0.000000 0.000000 -0.000000 -3.753638 3.255326 -1.564412 1.301992 -1.231007 4.437730 0.000000 0.000000 -0.000000 23.406759 -29.727163 -30.434889 96.093053 23.830083 -68.085640 -17.596121 -27.333688 -18.594841 0.000000 0.000000 -0.000000 -23.127031 22.371433 -35.884914 -77.740194 -30.506950 -61.394375 7.891466 30.341196 -23.549269 0.000000 0.000000 -0.000000 -12.887891 11.133636 -18.195956 0.000000 0.000000 -0.000000
1.639870 92.328033 0.985517 0.000000 0.000000 -0.000000 -1.409991 -1.890556 -2.047733 1.799212 1.057961 4.664174 18.181328 -5.226104 -6.837293 0.000000 0.000000 -0.000000 -0.106959 -0.145803 0.122897 -0.098053 -0.101854 1.817060 9.712500 0.566341 5.615872 0.000000 0.000000 -0.000000 -3.633716 3.175146 -1.674168 1.569466 -1.451799 4.398623 0.000000 0.000000 -0.000000 22.516851 -28.300533 -28.617735 86.857239 19.545369 -62.445818 -18.268292 -28.465948 -13.022742 0.000000 0.000000 -0.000000 -22.231884 21.112457 -33.836907 -68.918508 -27.220455 -56.041296 7.895017 31.215426 -17.295416 0.000000 0.000000 -0.000000 -12.842243 10.599413 -16.862688 0.000000 0.000000 -0.000000
